G04 #@! TF.GenerationSoftware,KiCad,Pcbnew,(6.0.9)*
G04 #@! TF.CreationDate,2022-12-13T15:48:36+03:00*
G04 #@! TF.ProjectId,smuHAT,736d7548-4154-42e6-9b69-6361645f7063,2.2*
G04 #@! TF.SameCoordinates,Original*
G04 #@! TF.FileFunction,Paste,Top*
G04 #@! TF.FilePolarity,Positive*
%FSLAX46Y46*%
G04 Gerber Fmt 4.6, Leading zero omitted, Abs format (unit mm)*
G04 Created by KiCad (PCBNEW (6.0.9)) date 2022-12-13 15:48:36*
%MOMM*%
%LPD*%
G01*
G04 APERTURE LIST*
G04 Aperture macros list*
%AMRoundRect*
0 Rectangle with rounded corners*
0 $1 Rounding radius*
0 $2 $3 $4 $5 $6 $7 $8 $9 X,Y pos of 4 corners*
0 Add a 4 corners polygon primitive as box body*
4,1,4,$2,$3,$4,$5,$6,$7,$8,$9,$2,$3,0*
0 Add four circle primitives for the rounded corners*
1,1,$1+$1,$2,$3*
1,1,$1+$1,$4,$5*
1,1,$1+$1,$6,$7*
1,1,$1+$1,$8,$9*
0 Add four rect primitives between the rounded corners*
20,1,$1+$1,$2,$3,$4,$5,0*
20,1,$1+$1,$4,$5,$6,$7,0*
20,1,$1+$1,$6,$7,$8,$9,0*
20,1,$1+$1,$8,$9,$2,$3,0*%
G04 Aperture macros list end*
%ADD10R,0.550000X1.100000*%
%ADD11R,0.450000X0.700000*%
%ADD12RoundRect,0.200000X-0.275000X0.200000X-0.275000X-0.200000X0.275000X-0.200000X0.275000X0.200000X0*%
%ADD13RoundRect,0.225000X-0.225000X-0.250000X0.225000X-0.250000X0.225000X0.250000X-0.225000X0.250000X0*%
%ADD14RoundRect,0.225000X-0.250000X0.225000X-0.250000X-0.225000X0.250000X-0.225000X0.250000X0.225000X0*%
%ADD15R,0.850000X0.300000*%
%ADD16R,0.300000X0.850000*%
%ADD17R,6.700000X6.700000*%
%ADD18RoundRect,0.200000X-0.200000X-0.275000X0.200000X-0.275000X0.200000X0.275000X-0.200000X0.275000X0*%
%ADD19RoundRect,0.200000X0.200000X0.275000X-0.200000X0.275000X-0.200000X-0.275000X0.200000X-0.275000X0*%
%ADD20R,0.540000X0.420000*%
%ADD21RoundRect,0.225000X0.250000X-0.225000X0.250000X0.225000X-0.250000X0.225000X-0.250000X-0.225000X0*%
%ADD22R,2.000000X1.600000*%
%ADD23R,2.000000X2.600000*%
%ADD24R,3.500000X2.600000*%
%ADD25RoundRect,0.225000X0.225000X0.250000X-0.225000X0.250000X-0.225000X-0.250000X0.225000X-0.250000X0*%
%ADD26R,1.600000X2.000000*%
%ADD27R,2.600000X2.000000*%
%ADD28R,0.800000X0.750000*%
%ADD29RoundRect,0.150000X-0.512500X-0.150000X0.512500X-0.150000X0.512500X0.150000X-0.512500X0.150000X0*%
%ADD30R,0.700000X1.350000*%
%ADD31R,1.925000X0.650000*%
%ADD32R,0.700000X0.600000*%
G04 APERTURE END LIST*
D10*
X162118000Y-120650000D03*
X163068000Y-120650000D03*
X164018000Y-120650000D03*
X164018000Y-118050000D03*
X163068000Y-118050000D03*
X162118000Y-118050000D03*
D11*
X159750000Y-117175000D03*
X158450000Y-117175000D03*
X159100000Y-119175000D03*
D12*
X170000000Y-122750000D03*
X170000000Y-124400000D03*
D13*
X158000000Y-96250000D03*
X159550000Y-96250000D03*
D14*
X155250000Y-105750000D03*
X155250000Y-107300000D03*
D15*
X148050000Y-96500000D03*
X148050000Y-97000000D03*
X148050000Y-97500000D03*
X148050000Y-98000000D03*
X148050000Y-98500000D03*
X148050000Y-99000000D03*
X148050000Y-99500000D03*
X148050000Y-100000000D03*
X148050000Y-100500000D03*
X148050000Y-101000000D03*
X148050000Y-101500000D03*
X148050000Y-102000000D03*
X148050000Y-102500000D03*
X148050000Y-103000000D03*
D16*
X148750000Y-103700000D03*
X149250000Y-103700000D03*
X149750000Y-103700000D03*
X150250000Y-103700000D03*
X150750000Y-103700000D03*
X151250000Y-103700000D03*
X151750000Y-103700000D03*
X152250000Y-103700000D03*
X152750000Y-103700000D03*
X153250000Y-103700000D03*
X153750000Y-103700000D03*
X154250000Y-103700000D03*
X154750000Y-103700000D03*
X155250000Y-103700000D03*
D15*
X155950000Y-103000000D03*
X155950000Y-102500000D03*
X155950000Y-102000000D03*
X155950000Y-101500000D03*
X155950000Y-101000000D03*
X155950000Y-100500000D03*
X155950000Y-100000000D03*
X155950000Y-99500000D03*
X155950000Y-99000000D03*
X155950000Y-98500000D03*
X155950000Y-98000000D03*
X155950000Y-97500000D03*
X155950000Y-97000000D03*
X155950000Y-96500000D03*
D16*
X155250000Y-95800000D03*
X154750000Y-95800000D03*
X154250000Y-95800000D03*
X153750000Y-95800000D03*
X153250000Y-95800000D03*
X152750000Y-95800000D03*
X152250000Y-95800000D03*
X151750000Y-95800000D03*
X151250000Y-95800000D03*
X150750000Y-95800000D03*
X150250000Y-95800000D03*
X149750000Y-95800000D03*
X149250000Y-95800000D03*
X148750000Y-95800000D03*
D17*
X152000000Y-99750000D03*
D18*
X175350000Y-95290000D03*
X177000000Y-95290000D03*
D19*
X166500000Y-90290000D03*
X164850000Y-90290000D03*
D20*
X125900000Y-119500000D03*
X127500000Y-119500000D03*
D21*
X150622000Y-91694000D03*
X150622000Y-90144000D03*
D19*
X166500000Y-102790000D03*
X164850000Y-102790000D03*
D22*
X139298000Y-109474000D03*
D23*
X142748000Y-109474000D03*
D22*
X146198000Y-109474000D03*
D19*
X152650000Y-114750000D03*
X151000000Y-114750000D03*
D24*
X127254000Y-111252000D03*
X127254000Y-81852000D03*
D19*
X166675000Y-95290000D03*
X165025000Y-95290000D03*
D18*
X175525000Y-107790000D03*
X177175000Y-107790000D03*
D19*
X166500000Y-105290000D03*
X164850000Y-105290000D03*
D14*
X175666400Y-116509200D03*
X175666400Y-118059200D03*
D25*
X162925000Y-107840000D03*
X161375000Y-107840000D03*
X162700000Y-90340000D03*
X161150000Y-90340000D03*
D13*
X157950000Y-99500000D03*
X159500000Y-99500000D03*
D26*
X156362400Y-83769200D03*
D27*
X156362400Y-87219200D03*
D26*
X156362400Y-90669200D03*
D18*
X165850000Y-116500000D03*
X167500000Y-116500000D03*
D28*
X157600000Y-124425000D03*
X157600000Y-122775000D03*
D18*
X175350000Y-92790000D03*
X177000000Y-92790000D03*
X175525000Y-105290000D03*
X177175000Y-105290000D03*
X175350000Y-102790000D03*
X177000000Y-102790000D03*
D29*
X171003800Y-116311600D03*
X171003800Y-117261600D03*
X171003800Y-118211600D03*
X173278800Y-118211600D03*
X173278800Y-117261600D03*
X173278800Y-116311600D03*
D30*
X153500000Y-105750000D03*
X153500000Y-107250000D03*
D28*
X152850000Y-124425000D03*
X152850000Y-122775000D03*
D13*
X121907000Y-118364000D03*
X123457000Y-118364000D03*
D19*
X131150000Y-119500000D03*
X129500000Y-119500000D03*
D31*
X136538000Y-125445000D03*
X136538000Y-124175000D03*
X136538000Y-122905000D03*
X136538000Y-121635000D03*
X136538000Y-120365000D03*
X136538000Y-119095000D03*
X136538000Y-117825000D03*
X136538000Y-116555000D03*
X145962000Y-116555000D03*
X145962000Y-117825000D03*
X145962000Y-119095000D03*
X145962000Y-120365000D03*
X145962000Y-121635000D03*
X145962000Y-122905000D03*
X145962000Y-124175000D03*
X145962000Y-125445000D03*
D18*
X158100000Y-114925000D03*
X159750000Y-114925000D03*
X175350000Y-100290000D03*
X177000000Y-100290000D03*
D13*
X151000000Y-118000000D03*
X152550000Y-118000000D03*
X158000000Y-102500000D03*
X159550000Y-102500000D03*
D25*
X162700000Y-95340000D03*
X161150000Y-95340000D03*
D18*
X175350000Y-90290000D03*
X177000000Y-90290000D03*
D30*
X152400000Y-91924000D03*
X152400000Y-90424000D03*
D18*
X123572000Y-122936000D03*
X125222000Y-122936000D03*
D30*
X157000000Y-106000000D03*
X157000000Y-107500000D03*
D14*
X151750000Y-105750000D03*
X151750000Y-107300000D03*
D18*
X162275000Y-114925000D03*
X163925000Y-114925000D03*
D25*
X167600000Y-113250000D03*
X166050000Y-113250000D03*
X162700000Y-97840000D03*
X161150000Y-97840000D03*
D21*
X149500000Y-124300000D03*
X149500000Y-122750000D03*
D25*
X162975000Y-102840000D03*
X161425000Y-102840000D03*
X162925000Y-105340000D03*
X161375000Y-105340000D03*
D14*
X149987000Y-108686000D03*
X149987000Y-110236000D03*
D25*
X162700000Y-92840000D03*
X161150000Y-92840000D03*
D18*
X175525000Y-97790000D03*
X177175000Y-97790000D03*
X126746000Y-125476000D03*
X128396000Y-125476000D03*
D25*
X162925000Y-100340000D03*
X161375000Y-100340000D03*
D13*
X167450000Y-120000000D03*
X169000000Y-120000000D03*
D32*
X162350000Y-123025000D03*
X163350000Y-123025000D03*
X163350000Y-124425000D03*
X162350000Y-124425000D03*
D19*
X166675000Y-107790000D03*
X165025000Y-107790000D03*
D12*
X166500000Y-122750000D03*
X166500000Y-124400000D03*
D18*
X154500000Y-114750000D03*
X156150000Y-114750000D03*
D30*
X159000000Y-106000000D03*
X159000000Y-107500000D03*
D19*
X166675000Y-97790000D03*
X165025000Y-97790000D03*
X166675000Y-92790000D03*
X165025000Y-92790000D03*
D25*
X144298000Y-99822000D03*
X142748000Y-99822000D03*
D19*
X166500000Y-100290000D03*
X164850000Y-100290000D03*
M02*
