M48
; DRILL file {KiCad (6.0.9)} date Tue Dec 13 15:48:40 2022
; FORMAT={-:-/ absolute / metric / decimal}
; #@! TF.CreationDate,2022-12-13T15:48:40+03:00
; #@! TF.GenerationSoftware,Kicad,Pcbnew,(6.0.9)
; #@! TF.FileFunction,MixedPlating,1,4
FMAT,2
METRIC
; #@! TA.AperFunction,Plated,PTH,ViaDrill
T1C0.250
; #@! TA.AperFunction,Plated,PTH,ComponentDrill
T2C0.400
; #@! TA.AperFunction,Plated,PTH,ComponentDrill
T3C1.000
; #@! TA.AperFunction,Plated,PTH,ComponentDrill
T4C1.150
; #@! TA.AperFunction,NonPlated,NPTH,ComponentDrill
T5C2.700
%
G90
G05
T1
X121.92Y-121.92
X124.765Y-80.518
X127.508Y-78.486
X129.032Y-120.904
X132.588Y-119.38
X133.604Y-79.248
X135.499Y-80.01
X136.906Y-82.169
X137.16Y-109.474
X137.576Y-78.751
X137.717Y-80.719
X137.922Y-108.204
X137.922Y-110.744
X138.684Y-121.412
X139.192Y-107.442
X139.192Y-111.252
X139.525Y-80.699
X140.97Y-107.442
X141.292Y-80.45
X141.478Y-120.904
X141.732Y-99.822
X141.986Y-78.486
X142.748Y-106.934
X143.256Y-84.074
X143.51Y-99.06
X143.51Y-124.206
X143.764Y-122.174
X144.78Y-78.384
X144.859Y-79.999
X145.237Y-113.487
X145.451Y-99.35
X145.501Y-88.087
X145.542Y-93.726
X145.859Y-100.038
X146.05Y-84.074
X146.198Y-107.548
X146.299Y-88.141
X146.304Y-80.01
X146.304Y-111.252
X146.924Y-89.582
X147.012Y-90.376
X147.574Y-80.264
X147.574Y-108.204
X147.574Y-110.744
X148.082Y-109.474
X148.262Y-90.247
X149.098Y-120.396
X149.166Y-99.5
X149.352Y-97.028
X149.73Y-80.896
X149.86Y-81.788
X150.114Y-97.028
X150.139Y-86.868
X150.241Y-107.569
X150.251Y-111.379
X150.749Y-86.349
X150.876Y-97.028
X151.384Y-79.248
X151.384Y-93.726
X151.511Y-85.608
X151.75Y-96.916
X151.892Y-108.458
X151.96Y-104.97
X152.0Y-99.75
X152.146Y-84.201
X152.248Y-85.09
X152.273Y-81.28
X152.4Y-120.396
X152.654Y-106.426
X152.75Y-96.932
X152.75Y-102.52
X153.162Y-82.55
X153.25Y-104.481
X153.314Y-94.374
X153.416Y-108.458
X153.75Y-102.536
X153.924Y-81.026
X153.924Y-83.82
X154.178Y-96.774
X154.432Y-93.98
X154.432Y-106.477
X154.75Y-102.552
X154.838Y-101.858
X154.976Y-97.5
X155.032Y-101.0
X155.143Y-91.694
X155.194Y-108.458
X155.272Y-94.936
X155.321Y-78.994
X155.702Y-92.202
X155.956Y-104.126
X155.956Y-106.68
X156.21Y-117.602
X156.21Y-120.65
X156.362Y-92.608
X156.464Y-81.026
X156.464Y-108.458
X156.667Y-77.673
X157.099Y-93.091
X157.582Y-103.632
X157.632Y-78.994
X157.988Y-105.918
X157.988Y-108.458
X158.496Y-80.38
X158.648Y-98.516
X158.699Y-95.199
X158.722Y-100.417
X159.004Y-81.026
X159.004Y-83.82
X159.004Y-116.332
X159.715Y-90.373
X159.715Y-92.862
X160.274Y-106.68
X160.528Y-79.908
X160.528Y-99.314
X160.528Y-103.378
X160.528Y-104.924
X160.655Y-86.868
X161.036Y-115.824
X161.138Y-113.233
X161.239Y-110.896
X161.29Y-99.314
X161.29Y-108.966
X161.788Y-78.933
X161.798Y-94.264
X161.798Y-96.774
X162.052Y-80.721
X162.1Y-99.232
X162.306Y-114.046
X162.56Y-96.52
X162.56Y-119.38
X162.662Y-91.694
X162.814Y-121.92
X163.068Y-111.252
X163.83Y-101.6
X163.83Y-106.426
X163.83Y-116.332
X163.932Y-113.436
X164.043Y-82.357
X164.541Y-111.354
X165.506Y-104.14
X165.811Y-109.576
X166.37Y-119.888
X167.132Y-84.633
X167.132Y-85.852
X167.132Y-86.868
X167.132Y-87.884
X167.386Y-109.22
X167.437Y-110.338
X167.894Y-88.9
X167.894Y-91.44
X167.894Y-93.98
X167.894Y-96.52
X167.894Y-99.06
X167.894Y-101.6
X167.894Y-104.14
X167.894Y-106.426
X168.046Y-111.1
X168.148Y-123.952
X169.418Y-114.808
X169.44Y-118.894
X170.332Y-80.112
X170.332Y-81.28
X170.332Y-82.347
X170.332Y-83.414
X170.332Y-84.531
X170.434Y-114.046
X170.688Y-119.126
X172.212Y-115.062
X172.771Y-84.785
X174.092Y-112.878
X174.172Y-109.91
X175.006Y-119.888
T2
X142.748Y-107.974
X142.748Y-110.974
X154.862Y-87.219
X157.862Y-87.219
T3
X122.37Y-74.23
X122.37Y-76.77
X124.91Y-74.23
X124.91Y-76.77
X127.45Y-74.23
X127.45Y-76.77
X129.99Y-74.23
X129.99Y-76.77
X132.53Y-74.23
X132.53Y-76.77
X135.07Y-74.23
X135.07Y-76.77
X137.61Y-74.23
X137.61Y-76.77
X140.15Y-74.23
X140.15Y-76.77
X142.69Y-74.23
X142.69Y-76.77
X145.23Y-74.23
X145.23Y-76.77
X147.77Y-74.23
X147.77Y-76.77
X150.31Y-74.23
X150.31Y-76.77
X152.85Y-74.23
X152.85Y-76.77
X155.39Y-74.23
X155.39Y-76.77
X157.93Y-74.23
X157.93Y-76.77
X160.47Y-74.23
X160.47Y-76.77
X163.01Y-74.23
X163.01Y-76.77
X165.55Y-74.23
X165.55Y-76.77
X168.09Y-74.23
X168.09Y-76.77
X170.63Y-74.23
X170.63Y-76.77
T4
X169.635Y-90.05
X169.635Y-92.59
X169.635Y-95.13
X169.635Y-97.67
X169.635Y-100.21
X169.635Y-102.75
X169.635Y-105.29
X169.635Y-107.83
X172.175Y-90.05
X172.175Y-92.59
X172.175Y-95.13
X172.175Y-97.67
X172.175Y-100.21
X172.175Y-102.75
X172.175Y-105.29
X172.175Y-107.83
T5
X117.5Y-75.5
X117.5Y-124.5
X175.5Y-75.5
X175.5Y-124.5
T0
M30
